PathFileType	4	(X/Y/Z)	D:\TRACE\spot_10-12-23\spot_arm_motion_3_3-v60.trc
DataRate	CameraRate	NumFrames	NumMarkers	Units	OrigDataRate	OrigDataStartFrame	OrigNumFrames
100.00	100.00	      43	9	mm	100.00	2626	      7000
Frame#	Time	front left toe			Front right toe			aft left toe			aft right toe			Arm			FL body			FR body			AL Body			AR Body			
		X1	Y1	Z1	X2	Y2	Z2	X3	Y3	Z3	X4	Y4	Z4	X5	Y5	Z5	X6	Y6	Z6	X7	Y7	Z7	X8	Y8	Z8	X9	Y9	Z9	

2626	26.250	-180.45009	24.57064	2.30084	313.01031	23.90274	23.75822	-190.83401	-12.72242	612.34753	291.79108	-20.21786	628.30084	38.62456	786.65820	-708.88580	-0.69197	548.10492	-38.92279	152.10594	551.13672	-36.79888	-17.06879	529.73730	844.77167	133.13795	526.46979	848.59924	
2627	26.260	-180.65581	24.62601	2.38620	312.78629	23.77384	23.82697	-190.93706	-13.15281	612.40454	291.78568	-20.48153	628.38098	38.61597	786.75220	-708.72357	-0.67426	548.36182	-38.70676	151.95753	551.55792	-36.53268	-17.04272	529.02313	844.79370	132.97346	525.75970	848.96344	
2628	26.270	-180.78699	24.64666	2.48199	312.68707	23.75560	23.85237	-191.21097	-13.45550	612.38782	291.64316	-20.66700	628.47272	38.53693	786.84711	-708.33728	-0.74676	548.56110	-38.54620	151.89893	551.86322	-36.41229	-17.33503	527.74573	844.79987	133.62259	525.04156	849.53198	
2629	26.280	-180.86407	24.63997	2.60213	312.60007	23.79067	23.93326	-191.40483	-13.72214	612.40662	291.37918	-20.98019	628.58948	38.66391	786.97375	-707.97870	-0.91418	548.74805	-38.39112	151.87741	552.11127	-36.28703	-17.33370	527.26160	844.97723	133.06465	524.34546	849.36200	
2630	26.290	-181.03432	24.60290	2.73461	312.55084	23.77286	23.97344	-191.48282	-13.94600	612.49347	291.36084	-21.30524	628.68951	38.77507	787.03198	-707.73315	-1.03514	548.92224	-38.29866	151.81572	552.36664	-36.13973	-17.61912	526.32440	845.16364	132.84184	523.60266	849.49847	
2631	26.300	-181.10535	24.53685	2.85281	312.44006	23.93376	24.08816	-191.54941	-14.17272	612.55084	291.26279	-21.51707	628.77545	38.93651	787.13910	-707.54340	-1.09811	549.10199	-38.15239	151.45888	552.82880	-36.03916	-17.80911	525.39655	844.95642	133.60292	523.22815	850.73621	
2632	26.310	-181.13744	24.47266	2.92178	312.28564	23.92670	24.10508	-191.49030	-14.70122	612.73004	291.18613	-21.60820	628.86218	38.89148	787.31958	-707.28687	-1.21139	549.30682	-38.05445	151.53157	553.02203	-35.52128	-17.73444	524.78857	845.20068	132.65408	522.17969	849.79114	
2633	26.320	-181.23349	24.47457	3.08347	312.17273	23.98865	24.23709	-191.67871	-15.21412	612.89514	290.95108	-21.99226	628.94519	38.98357	787.43689	-707.01550	-1.35247	549.50946	-37.95777	151.53596	553.23206	-35.38359	-18.31221	524.10608	845.14941	132.93675	521.68817	850.11462	
2634	26.330	-181.32324	24.47347	3.10527	312.14249	23.98456	24.34012	-192.03699	-15.45735	612.90948	290.80872	-22.39627	629.00232	39.12725	787.51807	-706.76984	-1.46321	549.68079	-37.83218	151.36160	553.42139	-35.51076	-18.24552	523.25952	845.43042	132.41995	520.97308	850.53253	
2635	26.340	-181.41530	24.45550	3.09433	312.00894	24.05813	24.48211	-192.12215	-15.74401	612.96979	290.86658	-22.87229	628.88611	39.16612	787.61017	-706.51532	-1.59499	549.82721	-37.74812	151.14656	553.68909	-35.48375	-18.74001	522.63281	845.71149	131.85004	520.33966	850.23126	
2636	26.350	-181.48636	24.51443	3.16165	311.94336	24.07081	24.59074	-192.18707	-15.94621	613.02625	290.65540	-23.18576	628.95972	39.28751	787.69055	-706.29156	-1.63530	549.93152	-37.65507	150.94188	554.01392	-35.28342	-19.41382	522.07727	845.31982	131.61748	519.77747	850.36786	
2637	26.360	-181.54025	24.51314	3.20527	311.84537	24.00781	24.71350	-192.37199	-16.07812	612.99072	290.40308	-23.60024	629.01477	39.37654	787.81897	-706.13831	-1.63641	550.00946	-37.54773	151.00546	554.23956	-35.13393	-19.31632	521.49951	845.66931	132.12230	519.79840	851.51532	
2638	26.370	-181.61298	24.53742	3.25052	311.78473	23.94756	24.88132	-192.50084	-16.36269	613.06567	290.28189	-23.87407	629.09143	39.63603	787.99835	-706.05023	-1.79423	550.14136	-37.47182	151.16026	554.44739	-34.89219	-19.50471	520.86700	845.87714	130.92123	519.07184	850.64557	
2639	26.380	-181.68568	24.53858	3.26958	311.73978	23.85975	25.04408	-192.60454	-16.67235	613.16718	290.21277	-24.00982	629.17328	39.41785	788.27948	-706.05536	-1.85292	550.06854	-37.32714	151.07037	554.47632	-34.71181	-19.82728	520.32617	845.90601	130.70618	518.56964	850.66425	
2640	26.390	-181.93102	24.49505	3.31906	311.57382	23.83974	25.18889	-192.64809	-17.07264	613.33051	290.17349	-24.17387	629.23932	39.37289	788.81024	-706.16180	-2.01138	549.96802	-37.20143	151.02240	554.41241	-34.58858	-20.06726	520.02374	845.90906	130.61812	518.20703	850.73773	
2641	26.400	-182.23990	24.52373	3.42897	311.47864	23.80998	25.35396	-192.71159	-17.38346	613.40063	290.17307	-24.33832	629.32617	39.37184	789.80951	-706.10620	-2.12944	549.88763	-37.09036	150.84322	554.33069	-34.47979	-20.29031	519.76520	845.93951	130.55168	517.82703	850.80792	
2642	26.410	-182.47481	24.55619	3.50423	311.32172	23.80572	25.36135	-192.60243	-17.80292	613.41406	290.01099	-24.58653	629.40820	39.15158	791.29901	-705.85242	-2.24353	549.90790	-36.99680	150.75377	554.33221	-34.39238	-20.48100	519.48572	845.94788	130.77231	517.69189	851.36963	
2643	26.420	-182.56714	24.57423	3.59184	311.51559	24.48667	26.09882	-192.56395	-18.33541	613.47412	289.79590	-25.02104	629.54761	39.02700	793.25818	-705.62054	-2.32286	549.97150	-36.88539	150.62703	554.53729	-34.29796	-20.55454	519.03296	845.89447	130.32994	517.20758	851.05469	
2644	26.430	-182.65788	24.62866	3.67912	311.30154	24.38438	26.04197	-192.22899	-19.03996	613.90753	289.59747	-25.50651	629.63379	38.87147	795.16681	-705.29260	-2.39473	550.14203	-36.80503	150.42091	554.85126	-34.03977	-20.54347	518.15302	846.01123	130.04926	516.62653	851.00262	
2645	26.440	-182.78235	24.68995	3.79493	311.14420	24.25054	25.94590	-194.42885	-17.69047	613.11774	289.51163	-25.84892	629.59259	38.89672	797.43225	-704.90710	-2.53037	550.50555	-36.68093	149.77103	555.48547	-34.24152	-19.98784	517.27960	845.98022	129.84897	516.14972	851.41333	
2646	26.450	-182.82780	24.75850	3.87675	310.91455	24.17105	25.75602	-194.09671	-18.40800	613.44287	289.34641	-26.29018	629.55658	38.63547	799.75378	-704.15009	-2.64296	551.04382	-36.58047	150.11404	555.61102	-34.09683	-20.85205	517.03973	846.19751	129.79689	515.50006	851.26587	
2647	26.460	-182.88962	24.75162	3.99995	310.70807	24.10553	25.67474	-193.90753	-18.95495	613.59729	289.21515	-26.55072	629.66364	38.56525	802.15723	-703.47290	-2.72401	551.36169	-36.54348	150.03842	555.96576	-33.94468	-21.19109	516.45697	846.04883	129.61777	514.90747	851.30804	
2648	26.470	-182.98247	24.76984	4.14690	310.63501	24.21869	25.79981	-193.77309	-19.32649	613.69952	289.07846	-26.86445	629.68622	38.64563	804.50647	-703.19800	-2.93899	551.88361	-36.52221	149.82748	556.37054	-33.81205	-21.03810	515.74561	846.48438	129.61960	514.34326	851.60223	
2649	26.480	-183.08713	24.79155	4.22734	310.53265	24.20198	25.72443	-193.77936	-19.65097	613.72528	289.00406	-27.21262	629.79034	38.75316	806.65405	-702.62048	-3.04203	552.21655	-36.46054	149.76387	556.74811	-33.68467	-21.28986	515.22717	846.58698	129.31664	513.63623	851.42889	
2650	26.490	-183.17305	24.77990	4.25716	310.34656	24.16224	25.70479	-193.78761	-20.06944	613.81683	289.03989	-27.51991	629.95428	38.85597	808.56354	-701.91815	-3.18805	552.48279	-36.33442	149.68231	556.89978	-33.64150	-21.72064	514.81299	846.26923	129.18547	513.01581	851.55231	
2651	26.500	-183.27873	24.87646	4.32737	310.16833	24.13620	25.74345	-193.82085	-20.53477	613.91125	289.05243	-27.76171	629.96796	39.13509	810.24182	-701.47662	-3.28642	552.73993	-36.15084	149.51712	557.34637	-33.58433	-21.82262	513.81879	846.58337	128.85152	512.55426	851.73792	
2652	26.510	-183.34196	24.88320	4.37443	310.17029	24.13332	25.81298	-193.89014	-21.04143	613.92603	289.02319	-28.03352	630.08276	38.78836	811.81665	-700.81061	-3.43489	553.03284	-36.05470	149.48926	557.98267	-33.25846	-21.93145	513.14569	846.75134	128.72079	511.60608	851.64185	
2653	26.520	-183.43962	24.99354	4.42160	310.00702	24.16676	25.89491	-194.05757	-21.48169	613.98352	288.98608	-28.37389	630.15594	38.90654	812.92432	-700.67114	-3.59589	553.57214	-35.95695	149.45399	558.47998	-33.07401	-22.19795	512.53992	846.71588	128.56279	510.89310	851.72626	
2654	26.530	-183.56882	25.01114	4.46981	309.89914	24.21134	26.05160	-194.18652	-21.65262	614.05029	288.87112	-28.63769	630.23962	38.81631	813.98370	-700.23682	-3.81821	554.07379	-35.92124	149.36423	558.76215	-33.16996	-22.49471	511.82626	846.81464	128.38858	510.39813	851.99872	
2655	26.540	-183.69337	24.97177	4.50073	310.03018	23.92884	26.11082	-194.40184	-21.77594	614.05389	288.66815	-29.09168	630.19537	38.81865	814.65271	-699.90515	-4.01391	554.51514	-35.84178	148.77191	559.11377	-32.92227	-22.58546	510.98996	846.87988	128.13875	509.68970	851.80707	
2656	26.550	-183.80109	24.99945	4.52337	310.22693	23.95680	26.34348	-194.54359	-22.01068	614.16187	288.29153	-29.63662	630.15674	38.82600	815.31549	-699.59943	-4.12635	554.90118	-35.68941	148.93286	559.29602	-32.66401	-22.98019	510.72504	846.80304	128.35059	509.13681	852.32629	
2657	26.560	-183.89146	25.00668	4.54906	309.74582	23.88918	26.35580	-194.69856	-22.40951	614.22394	288.09497	-30.01917	630.27856	38.74585	815.76111	-699.26642	-4.21811	555.15192	-35.58337	148.62572	559.73016	-32.81253	-23.15525	509.93884	847.04004	127.75951	508.43164	851.90369	
2658	26.570	-183.99348	25.05045	4.60576	309.61819	23.87845	26.47932	-194.85442	-22.87273	614.32465	288.07239	-30.33409	630.41547	38.77850	816.09009	-699.03088	-4.35351	555.34796	-35.45985	148.49800	560.02551	-32.69920	-23.21595	509.28381	847.15375	127.78749	508.01736	851.87024	
2659	26.580	-184.11119	25.02541	4.69059	309.39120	23.92226	26.60214	-194.93549	-23.35026	614.46539	288.01254	-30.51099	630.47406	38.66666	816.01190	-698.87964	-4.35682	555.44635	-35.36784	148.34332	560.54327	-32.58672	-23.24085	508.88809	847.10712	127.63492	507.40906	852.01740	
2660	26.590	-184.29082	25.04525	4.76120	309.27402	23.93923	26.62110	-195.03561	-23.65639	614.48083	287.85886	-30.75837	630.50873	38.78873	815.92230	-698.92444	-4.51872	555.55408	-35.26225	148.10928	560.78632	-32.53968	-23.40503	508.35339	847.07178	127.62110	507.14679	852.47949	
2661	26.600	-184.44069	25.00331	4.90215	309.21124	23.94208	26.78939	-195.14532	-23.99326	614.53284	287.67966	-31.13308	630.63043	38.57949	815.67188	-698.79950	-4.73026	555.72198	-35.15044	147.94356	560.92596	-32.50681	-23.58469	507.90405	847.19202	127.05095	506.65588	852.11511	
2662	26.610	-184.62552	24.96198	5.02273	309.11935	24.02578	26.84985	-195.33543	-24.30053	614.52759	287.48563	-31.59952	630.73041	38.31080	815.26154	-698.58307	-4.80072	555.81232	-35.06540	148.06532	560.83551	-32.40618	-23.71839	507.44321	847.23517	126.98669	506.23138	852.18549	
2663	26.620	-184.77904	24.99076	5.13625	309.15396	24.01880	26.72987	-195.50134	-24.64593	614.60815	287.39053	-32.07997	630.77924	38.11209	814.83478	-698.45831	-4.94384	555.95544	-34.95847	148.04681	561.04822	-32.50442	-23.75885	507.11218	847.25299	127.03657	505.74628	852.27380	
2664	26.630	-184.93428	25.00777	5.25660	309.06656	24.12294	26.89638	-195.54874	-25.24708	614.86682	287.23062	-32.56039	630.81451	37.97169	814.30676	-698.42786	-5.11859	556.04529	-34.86609	147.78754	561.13953	-32.19792	-23.86727	506.63269	847.24634	127.13200	505.29303	852.70782	
2665	26.640	-185.15205	25.06335	5.42745	309.05347	24.09440	26.97946	-195.60912	-25.60481	614.90997	287.10226	-32.89916	630.78180	37.80250	813.54468	-698.30634	-5.33620	556.13196	-34.76135	147.63879	561.23975	-32.09470	-24.00122	505.93854	847.40851	126.57179	504.78110	852.25311	
2666	26.650	-185.22807	25.03111	5.56694	308.99588	24.13424	27.10869	-195.76886	-25.89811	614.87152	286.98050	-33.37077	630.87646	37.46484	812.84564	-698.19098	-5.57952	556.24957	-34.68919	147.47925	561.35345	-31.99469	-24.15133	505.41714	847.43384	126.39243	504.22253	852.36285	
2667	26.660	-185.28831	24.96494	5.71113	308.83115	24.08733	27.21795	-195.91815	-26.21289	614.96875	286.97198	-33.72163	630.97736	37.19709	812.40619	-698.18579	-5.77464	556.30536	-34.60588	147.46863	561.25610	-31.57883	-24.13944	505.14435	847.47083	126.79820	504.03500	852.91449	
2668	26.670	-185.34279	24.93475	5.81822	308.58881	24.06762	27.34560	-195.98730	-26.68126	615.02484	286.91306	-33.98519	631.07623	36.96790	811.45459	-698.18390	-5.93957	556.35339	-34.53551	147.25314	561.33038	-31.55624	-24.31367	504.84143	847.51758	126.73361	503.52512	852.90991	
